<svg width="20" height="20" viewBox="0 0 20 20" fill="none" xmlns="http://www.w3.org/2000/svg">
<path d="M13.0833 17.5625L5.9375 10.4167C5.86806 10.3611 5.81944 10.2986 5.79167 10.2292C5.76389 10.1597 5.75 10.0834 5.75 10C5.75 9.91669 5.76389 9.8403 5.79167 9.77085C5.81944 9.70141 5.86806 9.63891 5.9375 9.58335L13.1042 2.41669C13.2153 2.29169 13.3681 2.22919 13.5625 2.22919C13.7569 2.22919 13.9167 2.29863 14.0417 2.43752C14.1667 2.56252 14.2292 2.72224 14.2292 2.91669C14.2292 3.11113 14.1667 3.27085 14.0417 3.39585L7.4375 10L14.0417 16.6042C14.1806 16.757 14.2465 16.9202 14.2396 17.0938C14.2326 17.2674 14.1667 17.4236 14.0417 17.5625C13.9028 17.6875 13.7396 17.75 13.5521 17.75C13.3646 17.75 13.2083 17.6875 13.0833 17.5625Z" fill="black"/>
</svg>
