<svg width="26" height="20" viewBox="0 0 26 20" fill="none" xmlns="http://www.w3.org/2000/svg">
<path d="M13 20L9 16H17L13 20Z" fill="#646464"/>
<rect width="26" height="16" rx="2" fill="#646464"/>
<path d="M6.40629 12H7.56629V9.21002L9.78629 4.64001H8.57629L7.71629 6.59002C7.49629 7.14001 7.25629 7.65002 7.01629 8.21002H6.97629C6.72629 7.65002 6.51629 7.14001 6.28629 6.59002L5.43629 4.64001H4.19629L6.40629 9.21002V12Z" fill="white"/>
<path d="M11.9078 12.13C13.2678 12.13 14.4978 11.08 14.4978 9.26002C14.4978 7.42001 13.2678 6.36002 11.9078 6.36002C10.5478 6.36002 9.31782 7.42001 9.31782 9.26002C9.31782 11.08 10.5478 12.13 11.9078 12.13ZM11.9078 11.19C11.0478 11.19 10.5078 10.42 10.5078 9.26002C10.5078 8.09001 11.0478 7.31002 11.9078 7.31002C12.7778 7.31002 13.3178 8.09001 13.3178 9.26002C13.3178 10.42 12.7778 11.19 11.9078 11.19Z" fill="white"/>
<path d="M17.0524 12.13C17.8124 12.13 18.3524 11.75 18.8524 11.17H18.8824L18.9724 12H19.9124V6.50002H18.7624V10.32C18.3024 10.9 17.9524 11.14 17.4424 11.14C16.7924 11.14 16.5224 10.77 16.5224 9.82001V6.50002H15.3724V9.96002C15.3724 11.36 15.8824 12.13 17.0524 12.13Z" fill="white"/>
</svg>
