<svg width="295" height="20" viewBox="0 0 295 20" fill="none" xmlns="http://www.w3.org/2000/svg">
<path d="M0 10C0 4.47715 4.47715 0 10 0H59V20H10C4.47715 20 0 15.5228 0 10Z" fill="#0DCD2C"/>
<path d="M12.3127 14H13.7927V10.8H16.5927V14H18.0627V6.60002H16.5927V9.51002H13.7927V6.60002H12.3127V14Z" fill="white"/>
<path d="M21.7831 14.14C22.4831 14.14 23.1931 13.9 23.7431 13.52L23.2431 12.62C22.8431 12.87 22.4431 13.01 21.9831 13.01C21.1531 13.01 20.5531 12.53 20.4331 11.61H23.8831C23.9231 11.48 23.9531 11.21 23.9531 10.94C23.9531 9.39002 23.1531 8.26002 21.6131 8.26002C20.2731 8.26002 19.0031 9.39002 19.0031 11.21C19.0031 13.05 20.2231 14.14 21.7831 14.14ZM20.4131 10.64C20.5231 9.82002 21.0431 9.40002 21.6331 9.40002C22.3531 9.40002 22.6931 9.88002 22.6931 10.64H20.4131Z" fill="white"/>
<path d="M25.9989 14.14C26.6389 14.14 27.1989 13.82 27.6889 13.4H27.7189L27.8289 14H29.0289V10.73C29.0289 9.11002 28.2989 8.26002 26.8789 8.26002C25.9989 8.26002 25.1989 8.59002 24.5389 9.00002L25.0689 9.97002C25.5889 9.67002 26.0889 9.44002 26.6089 9.44002C27.2989 9.44002 27.5389 9.86002 27.5589 10.41C25.3089 10.65 24.3389 11.28 24.3389 12.48C24.3389 13.43 24.9989 14.14 25.9989 14.14ZM26.4789 12.99C26.0489 12.99 25.7389 12.8 25.7389 12.36C25.7389 11.86 26.1989 11.49 27.5589 11.31V12.44C27.2089 12.79 26.8989 12.99 26.4789 12.99Z" fill="white"/>
<path d="M31.4991 14.14C31.8391 14.14 32.0891 14.08 32.2591 14.01L32.0791 12.92C31.9791 12.94 31.9391 12.94 31.8791 12.94C31.7391 12.94 31.5791 12.83 31.5791 12.5V6.02002H30.1191V12.43C30.1191 13.47 30.4791 14.14 31.4991 14.14Z" fill="white"/>
<path d="M34.9154 14.14C35.4054 14.14 35.7954 14.03 36.0954 13.93L35.8554 12.86C35.7054 12.92 35.4854 12.98 35.3054 12.98C34.8054 12.98 34.5454 12.68 34.5454 12.04V9.56002H35.9254V8.40002H34.5454V6.90002H33.3154L33.1454 8.40002L32.2854 8.47002V9.56002H33.0754V12.04C33.0754 13.3 33.5854 14.14 34.9154 14.14Z" fill="white"/>
<path d="M36.6567 14H38.1166V10.15C38.5366 9.74002 38.8266 9.52002 39.2866 9.52002C39.8366 9.52002 40.0767 9.83002 40.0767 10.69V14H41.5466V10.51C41.5466 9.10002 41.0267 8.26002 39.8167 8.26002C39.0567 8.26002 38.5067 8.66002 38.0567 9.08002L38.1166 8.03002V6.02002H36.6567V14Z" fill="white"/>
<path d="M43.1351 16.25C44.3851 16.25 44.9851 15.49 45.4751 14.17L47.4651 8.40002H46.0551L45.2851 11C45.1551 11.52 45.0151 12.06 44.8851 12.58H44.8351C44.6751 12.04 44.5351 11.5 44.3651 11L43.4751 8.40002H41.9951L44.1751 13.9L44.0751 14.23C43.9151 14.72 43.5951 15.08 43.0251 15.08C42.8951 15.08 42.7351 15.04 42.6351 15.01L42.3651 16.14C42.5851 16.21 42.8051 16.25 43.1351 16.25Z" fill="white"/>
<rect x="59" width="59" height="20" fill="#95DB00"/>
<rect x="118" width="59" height="20" fill="#FFC700"/>
<path d="M72.0266 14H73.4266V11.03C73.4266 10.18 73.3166 9.25002 73.2466 8.45002H73.2966L74.0466 10.04L76.1866 14H77.6866V6.60002H76.2866V9.55002C76.2866 10.39 76.3966 11.37 76.4766 12.14H76.4266L75.6866 10.54L73.5366 6.60002H72.0266V14Z" fill="white"/>
<path d="M81.3288 14.14C82.7288 14.14 84.0188 13.06 84.0188 11.21C84.0188 9.34002 82.7288 8.26002 81.3288 8.26002C79.9288 8.26002 78.6388 9.34002 78.6388 11.21C78.6388 13.06 79.9288 14.14 81.3288 14.14ZM81.3288 12.94C80.5688 12.94 80.1388 12.26 80.1388 11.21C80.1388 10.15 80.5688 9.46002 81.3288 9.46002C82.0888 9.46002 82.5188 10.15 82.5188 11.21C82.5188 12.26 82.0888 12.94 81.3288 12.94Z" fill="white"/>
<path d="M84.8406 14H86.3006V10.66C86.6206 9.85002 87.1506 9.56002 87.5906 9.56002C87.8206 9.56002 87.9806 9.59002 88.1706 9.65002L88.4306 8.38002C88.2606 8.31002 88.0806 8.26002 87.7706 8.26002C87.1906 8.26002 86.5906 8.66002 86.1806 9.39002H86.1406L86.0406 8.40002H84.8406V14Z" fill="white"/>
<path d="M88.7881 14H90.2481V10.15C90.6481 9.73002 91.0081 9.52002 91.3281 9.52002C91.8581 9.52002 92.1081 9.83002 92.1081 10.69V14H93.5781V10.15C93.9781 9.73002 94.3381 9.52002 94.6581 9.52002C95.1881 9.52002 95.4381 9.83002 95.4381 10.69V14H96.9081V10.51C96.9081 9.10002 96.3581 8.26002 95.1681 8.26002C94.4381 8.26002 93.8981 8.70002 93.3881 9.24002C93.1181 8.62002 92.6481 8.26002 91.8481 8.26002C91.1181 8.26002 90.5981 8.66002 90.1281 9.15002H90.0881L89.9881 8.40002H88.7881V14Z" fill="white"/>
<path d="M99.3988 14.14C100.039 14.14 100.599 13.82 101.089 13.4H101.119L101.229 14H102.429V10.73C102.429 9.11002 101.699 8.26002 100.279 8.26002C99.3988 8.26002 98.5988 8.59002 97.9388 9.00002L98.4688 9.97002C98.9888 9.67002 99.4888 9.44002 100.009 9.44002C100.699 9.44002 100.939 9.86002 100.959 10.41C98.7088 10.65 97.7388 11.28 97.7388 12.48C97.7388 13.43 98.3988 14.14 99.3988 14.14ZM99.8788 12.99C99.4488 12.99 99.1388 12.8 99.1388 12.36C99.1388 11.86 99.5988 11.49 100.959 11.31V12.44C100.609 12.79 100.299 12.99 99.8788 12.99Z" fill="white"/>
<path d="M104.899 14.14C105.239 14.14 105.489 14.08 105.659 14.01L105.479 12.92C105.379 12.94 105.339 12.94 105.279 12.94C105.139 12.94 104.979 12.83 104.979 12.5V6.02002H103.519V12.43C103.519 13.47 103.879 14.14 104.899 14.14Z" fill="white"/>
<path d="M133.279 14.14C134.239 14.14 135.029 13.76 135.639 13.05L134.859 12.13C134.459 12.56 133.959 12.86 133.329 12.86C132.159 12.86 131.399 11.89 131.399 10.28C131.399 8.69002 132.239 7.73002 133.359 7.73002C133.919 7.73002 134.349 7.99002 134.719 8.35002L135.499 7.41002C135.019 6.91002 134.269 6.46002 133.329 6.46002C131.459 6.46002 129.889 7.89002 129.889 10.33C129.889 12.8 131.409 14.14 133.279 14.14Z" fill="white"/>
<path d="M137.683 14.14C138.323 14.14 138.883 13.82 139.373 13.4H139.403L139.513 14H140.713V10.73C140.713 9.11002 139.983 8.26003 138.563 8.26003C137.683 8.26003 136.883 8.59002 136.223 9.00003L136.753 9.97003C137.273 9.67003 137.773 9.44002 138.293 9.44002C138.983 9.44002 139.223 9.86002 139.243 10.41C136.993 10.65 136.023 11.28 136.023 12.48C136.023 13.43 136.683 14.14 137.683 14.14ZM138.163 12.99C137.733 12.99 137.423 12.8 137.423 12.36C137.423 11.86 137.883 11.49 139.243 11.31V12.44C138.893 12.79 138.583 12.99 138.163 12.99Z" fill="white"/>
<path d="M143.463 14.14C144.233 14.14 144.773 13.77 145.253 13.2H145.293L145.403 14H146.603V8.40003H145.133V12.18C144.753 12.68 144.453 12.88 143.993 12.88C143.453 12.88 143.213 12.58 143.213 11.71V8.40003H141.743V11.9C141.743 13.3 142.263 14.14 143.463 14.14Z" fill="white"/>
<path d="M149.813 14.14C150.303 14.14 150.693 14.03 150.993 13.93L150.753 12.86C150.603 12.92 150.383 12.98 150.203 12.98C149.703 12.98 149.443 12.68 149.443 12.04V9.56002H150.823V8.40003H149.443V6.90002H148.213L148.043 8.40003L147.183 8.47002V9.56002H147.973V12.04C147.973 13.3 148.483 14.14 149.813 14.14Z" fill="white"/>
<path d="M151.554 14H153.014V8.40003H151.554V14ZM152.294 7.50002C152.794 7.50002 153.164 7.16002 153.164 6.70002C153.164 6.22002 152.794 5.90002 152.294 5.90002C151.784 5.90002 151.414 6.22002 151.414 6.70002C151.414 7.16002 151.784 7.50002 152.294 7.50002Z" fill="white"/>
<path d="M156.523 14.14C157.923 14.14 159.213 13.06 159.213 11.21C159.213 9.34002 157.923 8.26003 156.523 8.26003C155.123 8.26003 153.833 9.34002 153.833 11.21C153.833 13.06 155.123 14.14 156.523 14.14ZM156.523 12.94C155.763 12.94 155.333 12.26 155.333 11.21C155.333 10.15 155.763 9.46002 156.523 9.46002C157.283 9.46002 157.713 10.15 157.713 11.21C157.713 12.26 157.283 12.94 156.523 12.94Z" fill="white"/>
<path d="M160.035 14H161.495V10.15C161.915 9.74002 162.205 9.52003 162.665 9.52003C163.215 9.52003 163.455 9.83002 163.455 10.69V14H164.925V10.51C164.925 9.10002 164.405 8.26003 163.195 8.26003C162.435 8.26003 161.865 8.66002 161.375 9.14002H161.335L161.235 8.40003H160.035V14Z" fill="white"/>
<rect x="177" width="59" height="20" fill="#FF6B00"/>
<path d="M236 0H285C290.523 0 295 4.47715 295 10C295 15.5228 290.523 20 285 20H236V0Z" fill="#FF0000"/>
<path d="M188.792 14H190.602L191.412 10.34C191.532 9.76003 191.632 9.19002 191.732 8.63003H191.772C191.862 9.19002 191.972 9.76003 192.092 10.34L192.922 14H194.762L196.132 6.60002H194.722L194.142 10.21C194.032 10.98 193.922 11.77 193.812 12.57H193.762C193.602 11.77 193.452 10.97 193.292 10.21L192.432 6.60002H191.172L190.312 10.21C190.152 10.98 189.992 11.78 189.842 12.57H189.802C189.692 11.78 189.572 10.99 189.462 10.21L188.872 6.60002H187.362L188.792 14Z" fill="white"/>
<path d="M197.948 14.14C198.588 14.14 199.148 13.82 199.638 13.4H199.668L199.778 14H200.978V10.73C200.978 9.11002 200.248 8.26003 198.828 8.26003C197.948 8.26003 197.148 8.59002 196.488 9.00003L197.018 9.97003C197.538 9.67003 198.038 9.44002 198.558 9.44002C199.248 9.44002 199.488 9.86002 199.508 10.41C197.258 10.65 196.288 11.28 196.288 12.48C196.288 13.43 196.948 14.14 197.948 14.14ZM198.428 12.99C197.998 12.99 197.688 12.8 197.688 12.36C197.688 11.86 198.148 11.49 199.508 11.31V12.44C199.158 12.79 198.848 12.99 198.428 12.99Z" fill="white"/>
<path d="M202.068 14H203.528V10.66C203.848 9.85002 204.378 9.56002 204.818 9.56002C205.048 9.56002 205.208 9.59002 205.398 9.65002L205.658 8.38002C205.488 8.31002 205.308 8.26003 204.998 8.26003C204.418 8.26003 203.818 8.66002 203.408 9.39002H203.368L203.268 8.40003H202.068V14Z" fill="white"/>
<path d="M206.016 14H207.476V10.15C207.896 9.74002 208.186 9.52003 208.646 9.52003C209.196 9.52003 209.436 9.83002 209.436 10.69V14H210.906V10.51C210.906 9.10002 210.386 8.26003 209.176 8.26003C208.416 8.26003 207.846 8.66002 207.356 9.14002H207.316L207.216 8.40003H206.016V14Z" fill="white"/>
<path d="M212.014 14H213.474V8.40003H212.014V14ZM212.754 7.50002C213.254 7.50002 213.624 7.16002 213.624 6.70002C213.624 6.22002 213.254 5.90002 212.754 5.90002C212.244 5.90002 211.874 6.22002 211.874 6.70002C211.874 7.16002 212.244 7.50002 212.754 7.50002Z" fill="white"/>
<path d="M214.643 14H216.103V10.15C216.523 9.74002 216.813 9.52003 217.273 9.52003C217.823 9.52003 218.063 9.83002 218.063 10.69V14H219.533V10.51C219.533 9.10002 219.013 8.26003 217.803 8.26003C217.043 8.26003 216.473 8.66002 215.983 9.14002H215.943L215.843 8.40003H214.643V14Z" fill="white"/>
<path d="M222.611 16.43C224.481 16.43 225.651 15.57 225.651 14.44C225.651 13.46 224.921 13.04 223.571 13.04H222.621C221.961 13.04 221.741 12.88 221.741 12.58C221.741 12.36 221.821 12.23 221.981 12.1C222.221 12.18 222.481 12.23 222.701 12.23C223.901 12.23 224.861 11.59 224.861 10.33C224.861 9.98002 224.751 9.67002 224.601 9.48002H225.561V8.40003H223.541C223.311 8.32002 223.011 8.26003 222.701 8.26003C221.511 8.26003 220.441 8.97002 220.441 10.29C220.441 10.94 220.801 11.47 221.181 11.75V11.79C220.851 12.03 220.561 12.42 220.561 12.84C220.561 13.3 220.781 13.59 221.071 13.78V13.83C220.561 14.12 220.271 14.52 220.271 14.99C220.271 15.98 221.291 16.43 222.611 16.43ZM222.701 11.32C222.211 11.32 221.821 10.95 221.821 10.29C221.821 9.63002 222.201 9.26002 222.701 9.26002C223.201 9.26002 223.571 9.63002 223.571 10.29C223.571 10.95 223.191 11.32 222.701 11.32ZM222.831 15.5C222.011 15.5 221.491 15.23 221.491 14.76C221.491 14.53 221.611 14.31 221.861 14.11C222.061 14.16 222.301 14.19 222.641 14.19H223.321C223.921 14.19 224.251 14.29 224.251 14.69C224.251 15.13 223.671 15.5 222.831 15.5Z" fill="white"/>
<path d="M249.23 14H251.34C253.52 14 254.92 12.76 254.92 10.27C254.92 7.76998 253.52 6.59998 251.26 6.59998H249.23V14ZM250.71 12.81V7.77998H251.17C252.55 7.77998 253.41 8.45998 253.41 10.27C253.41 12.07 252.55 12.81 251.17 12.81H250.71Z" fill="white"/>
<path d="M257.22 14.14C257.86 14.14 258.42 13.82 258.91 13.4H258.94L259.05 14H260.25V10.73C260.25 9.10998 259.52 8.25998 258.1 8.25998C257.22 8.25998 256.42 8.58998 255.76 8.99998L256.29 9.96998C256.81 9.66998 257.31 9.43998 257.83 9.43998C258.52 9.43998 258.76 9.85998 258.78 10.41C256.53 10.65 255.56 11.28 255.56 12.48C255.56 13.43 256.22 14.14 257.22 14.14ZM257.7 12.99C257.27 12.99 256.96 12.8 256.96 12.36C256.96 11.86 257.42 11.49 258.78 11.31V12.44C258.43 12.79 258.12 12.99 257.7 12.99Z" fill="white"/>
<path d="M261.341 14H262.801V10.15C263.221 9.73998 263.511 9.51998 263.971 9.51998C264.521 9.51998 264.761 9.82998 264.761 10.69V14H266.231V10.51C266.231 9.09998 265.711 8.25998 264.501 8.25998C263.741 8.25998 263.171 8.65998 262.681 9.13998H262.641L262.541 8.39998H261.341V14Z" fill="white"/>
<path d="M269.309 16.43C271.179 16.43 272.349 15.57 272.349 14.44C272.349 13.46 271.619 13.04 270.269 13.04H269.319C268.659 13.04 268.439 12.88 268.439 12.58C268.439 12.36 268.519 12.23 268.679 12.1C268.919 12.18 269.179 12.23 269.399 12.23C270.599 12.23 271.559 11.59 271.559 10.33C271.559 9.97998 271.449 9.66998 271.299 9.47998H272.259V8.39998H270.239C270.009 8.31998 269.709 8.25998 269.399 8.25998C268.209 8.25998 267.139 8.96998 267.139 10.29C267.139 10.94 267.499 11.47 267.879 11.75V11.79C267.549 12.03 267.259 12.42 267.259 12.84C267.259 13.3 267.479 13.59 267.769 13.78V13.83C267.259 14.12 266.969 14.52 266.969 14.99C266.969 15.98 267.989 16.43 269.309 16.43ZM269.399 11.32C268.909 11.32 268.519 10.95 268.519 10.29C268.519 9.62998 268.899 9.25998 269.399 9.25998C269.899 9.25998 270.269 9.62998 270.269 10.29C270.269 10.95 269.889 11.32 269.399 11.32ZM269.529 15.5C268.709 15.5 268.189 15.23 268.189 14.76C268.189 14.53 268.309 14.31 268.559 14.11C268.759 14.16 268.999 14.19 269.339 14.19H270.019C270.619 14.19 270.949 14.29 270.949 14.69C270.949 15.13 270.369 15.5 269.529 15.5Z" fill="white"/>
<path d="M275.142 14.14C275.842 14.14 276.552 13.9 277.102 13.52L276.602 12.62C276.202 12.87 275.802 13.01 275.342 13.01C274.512 13.01 273.912 12.53 273.792 11.61H277.242C277.282 11.48 277.312 11.21 277.312 10.94C277.312 9.38998 276.512 8.25998 274.972 8.25998C273.632 8.25998 272.362 9.38998 272.362 11.21C272.362 13.05 273.582 14.14 275.142 14.14ZM273.772 10.64C273.882 9.81998 274.402 9.39998 274.992 9.39998C275.712 9.39998 276.052 9.87998 276.052 10.64H273.772Z" fill="white"/>
<path d="M278.115 14H279.575V10.66C279.895 9.84998 280.425 9.55998 280.865 9.55998C281.095 9.55998 281.255 9.58998 281.445 9.64998L281.705 8.37998C281.535 8.30998 281.355 8.25998 281.045 8.25998C280.465 8.25998 279.865 8.65998 279.455 9.38998H279.415L279.315 8.39998H278.115V14Z" fill="white"/>
</svg>
